<?xml version="1.0" encoding="UTF-8"?>
<svg version="1.1" xmlns="http://www.w3.org/2000/svg" width="192" height="35">
<path d="M0 0 C11.55 0 23.1 0 35 0 C35 11.55 35 23.1 35 35 C23.45 35 11.9 35 0 35 C0 23.45 0 11.9 0 0 Z " fill="#004BD2" transform="translate(0,0)"/>
<path d="M0 0 C8.58 0 17.16 0 26 0 C26.33 4.95 26.66 9.9 27 15 C27.66 14.67 28.32 14.34 29 14 C29 10.37 29 6.74 29 3 C28.34 2.67 27.68 2.34 27 2 C27 1.34 27 0.68 27 0 C37.66666667 0 48.33333333 0 59 0 C60.155 -0.04125 61.31 -0.0825 62.5 -0.125 C66 0 66 0 69 2 C69.4765625 4.96875 69.4765625 4.96875 69.625 8.5 C69.68253404 12.90990566 69.68253404 12.90990566 71 17 C64.23783363 17.21902614 57.47528102 17.41393065 50.71191406 17.59204102 C48.41097265 17.65548728 46.11017685 17.72446418 43.80957031 17.79907227 C40.5034819 17.90532921 37.19738084 17.99171483 33.890625 18.07421875 C32.86132874 18.11157639 31.83203247 18.14893402 30.77154541 18.18742371 C29.81085144 18.20767105 28.85015747 18.2279184 27.86035156 18.2487793 C27.01651917 18.27320602 26.17268677 18.29763275 25.30328369 18.32279968 C22.39956701 17.91585076 21.08000898 17.04637881 19 15 C18.25 11.3125 18.25 11.3125 18 8 C17.21625 8.20625 16.4325 8.4125 15.625 8.625 C14.75875 8.74875 13.8925 8.8725 13 9 C12.34 8.34 11.68 7.68 11 7 C10.95875 8.27875 10.9175 9.5575 10.875 10.875 C10.84019531 11.95394531 10.84019531 11.95394531 10.8046875 13.0546875 C10.81668311 15.23863645 10.81668311 15.23863645 13 17 C8.71 17 4.42 17 0 17 C0.66 16.34 1.32 15.68 2 15 C2.24339551 12.10116917 2.24339551 12.10116917 2.125 8.875 C2.10695313 7.77929688 2.08890625 6.68359375 2.0703125 5.5546875 C2.04710938 4.71164063 2.02390625 3.86859375 2 3 C1.34 2.67 0.68 2.34 0 2 C0 1.34 0 0.68 0 0 Z M38 2 C38 6.62 38 11.24 38 16 C38.66 16 39.32 16 40 16 C40.94238698 13.17283905 41.13465647 11.36823877 41.125 8.4375 C41.12757813 7.65246094 41.13015625 6.86742187 41.1328125 6.05859375 C41.12976366 3.93561023 41.12976366 3.93561023 40 2 C39.34 2 38.68 2 38 2 Z M49 2 C47.61773984 4.76452033 47.90474613 7.0461363 47.9375 10.125 C47.94652344 11.22070312 47.95554688 12.31640625 47.96484375 13.4453125 C47.97644531 14.28835937 47.98804688 15.13140625 48 16 C48.99 16 49.98 16 51 16 C51 11.38 51 6.76 51 2 C50.34 2 49.68 2 49 2 Z M60 2 C58.66098208 3.11126659 58.66098208 3.11126659 58.90234375 5.94140625 C58.91394531 7.13636719 58.92554688 8.33132812 58.9375 9.5625 C58.94652344 10.76003906 58.95554688 11.95757812 58.96484375 13.19140625 C58.97644531 14.11824219 58.98804688 15.04507812 59 16 C59.99 15.67 60.98 15.34 62 15 C62 11.04 62 7.08 62 3 C61.34 2.67 60.68 2.34 60 2 Z " fill="#004BD2" transform="translate(121,13)"/>
<path d="M0 0 C0.66 0 1.32 0 2 0 C2 2.31 2 4.62 2 7 C3.65 7 5.3 7 7 7 C6.67 7.99 6.34 8.98 6 10 C4.68 10 3.36 10 2 10 C2.33 13.63 2.66 17.26 3 21 C3.66 21 4.32 21 5 21 C5.33 20.34 5.66 19.68 6 19 C6.66 19.33 7.32 19.66 8 20 C6.25 23.875 6.25 23.875 4 25 C0.60988731 25.36849051 -1.36640438 25.35014495 -4.375 23.6875 C-6.97405576 19.38906162 -6.30405549 14.89867185 -6 10 C-6.66 10 -7.32 10 -8 10 C-8 14.29 -8 18.58 -8 23 C-7.34 23.33 -6.68 23.66 -6 24 C-9.96 24 -13.92 24 -18 24 C-17.34 23.67 -16.68 23.34 -16 23 C-16 18.38 -16 13.76 -16 9 C-16.66 9 -17.32 9 -18 9 C-18 8.34 -18 7.68 -18 7 C-17.11957031 6.99742188 -16.23914062 6.99484375 -15.33203125 6.9921875 C-8.85092141 7.03869799 -8.85092141 7.03869799 -3.09375 4.59765625 C-1.64455301 2.77952578 -1.64455301 2.77952578 0 0 Z " fill="#004BD2" transform="translate(79,6)"/>
<path d="M0 0 C3.63 0 7.26 0 11 0 C11 2.64 11 5.28 11 8 C12.60875 7.87625 12.60875 7.87625 14.25 7.75 C18 8 18 8 20.4375 9.4375 C22.75783695 13.2428526 22.76604972 16.6590516 22 21 C20.34661779 23.75563701 19.18278408 24.67521913 16.09375 25.5234375 C12.19635912 26.17785015 9.36511705 26.38362458 6 24 C5.01 24.66 4.02 25.32 3 26 C2.98018066 25.28344238 2.96036133 24.56688477 2.93994141 23.82861328 C2.84490481 20.5936937 2.73513981 17.35943906 2.625 14.125 C2.57859375 12.43310547 2.57859375 12.43310547 2.53125 10.70703125 C2.49257813 9.63066406 2.45390625 8.55429688 2.4140625 7.4453125 C2.3826416 6.45031738 2.3512207 5.45532227 2.31884766 4.43017578 C2.22752917 1.82145483 2.22752917 1.82145483 0 0 Z M11 10 C9.9609283 17.02782042 9.9609283 17.02782042 11 24 C11.99 23.67 12.98 23.34 14 23 C14 19.04 14 15.08 14 11 C13.01 10.67 12.02 10.34 11 10 Z " fill="#004BD2" transform="translate(40,5)"/>
<path d="M0 0 C2.97 0 5.94 0 9 0 C9 2.64 9 5.28 9 8 C9.9075 7.9175 10.815 7.835 11.75 7.75 C15 8 15 8 17.375 9.625 C19.48706506 12.71186432 19.61195145 14.3282913 19 18 C16.79661051 21.26101645 15.31980946 21.91433675 11.5 22.9375 C8 23 8 23 5.5625 21.5625 C5.046875 21.046875 4.53125 20.53125 4 20 C4 20.66 4 21.32 4 22 C3.34 22 2.68 22 2 22 C2 15.07 2 8.14 2 1 C1.34 0.67 0.68 0.34 0 0 Z " fill="#437ADD" transform="translate(8,6)"/>
<path d="M0 0 C0.99 0.66 1.98 1.32 3 2 C3.25 4.5625 3.25 4.5625 3 7 C2 8 2 8 -0.5 8.125 C-3 8 -3 8 -4 7 C-4.33 7.66 -4.66 8.32 -5 9 C-4.01 9 -3.02 9 -2 9 C-2 9.99 -2 10.98 -2 12 C-2.99 12 -3.98 12 -5 12 C-5 16.29 -5 20.58 -5 25 C-4.34 25.33 -3.68 25.66 -3 26 C-6.96 26 -10.92 26 -15 26 C-14.34 25.67 -13.68 25.34 -13 25 C-13 20.71 -13 16.42 -13 12 C-13.99 12 -14.98 12 -16 12 C-15.67 11.01 -15.34 10.02 -15 9 C-14.34 9 -13.68 9 -13 9 C-12.95875 8.071875 -12.9175 7.14375 -12.875 6.1875 C-12 3 -12 3 -9.3125 1.125 C-5.90028974 -0.03386386 -3.56931874 -0.39659097 0 0 Z " fill="#004BD2" transform="translate(107,4)"/>
<path d="M0 0 C2.9375 1.5625 2.9375 1.5625 5 4 C6.14009771 7.91908586 6.40888632 10.03158504 4.8125 13.8125 C2.894279 16.12759431 1.75777565 16.90682767 -1 18 C-5.5979043 18.31570118 -9.02701855 17.83059392 -12.5625 14.8125 C-14.27504881 11.46186103 -14.61875967 9.71255801 -14 6 C-10.18120072 0.27180108 -6.80127781 -0.91204875 0 0 Z M-5 2 C-6.31262571 3.08552366 -6.31262571 3.08552366 -6.09765625 5.72265625 C-6.08605469 6.82480469 -6.07445313 7.92695313 -6.0625 9.0625 C-6.05347656 10.16722656 -6.04445313 11.27195312 -6.03515625 12.41015625 C-6.02355469 13.26480469 -6.01195313 14.11945312 -6 15 C-5.01 15.33 -4.02 15.66 -3 16 C-1.75622607 13.51245214 -1.86693765 11.77344699 -1.875 9 C-1.87113281 7.6696875 -1.87113281 7.6696875 -1.8671875 6.3125 C-1.84872098 3.97323034 -1.84872098 3.97323034 -3 2 C-3.66 2 -4.32 2 -5 2 Z " fill="#004BD2" transform="translate(117,13)"/>
<path d="M0 0 C1.65 0 3.3 0 5 0 C6.10087193 7.01805857 6.09733092 13.90565767 6 21 C4.02 20.67 2.04 20.34 0 20 C0 13.4 0 6.8 0 0 Z " fill="#F5F8FD" transform="translate(11,7)"/>
<path d="M0 0 C2.875 0.3125 2.875 0.3125 6 1 C8.32749345 4.49124017 8.50299316 5.89222251 8 10 C6.1875 12.375 6.1875 12.375 4 14 C3.01 14 2.02 14 1 14 C1.01160156 13.15695313 1.02320312 12.31390625 1.03515625 11.4453125 C1.04417969 10.34960938 1.05320312 9.25390625 1.0625 8.125 C1.07410156 7.03445312 1.08570312 5.94390625 1.09765625 4.8203125 C1.19744303 2.04822454 1.19744303 2.04822454 0 0 Z " fill="#F0F4FC" transform="translate(19,14)"/>
<path d="M0 0 C2.625 0.375 2.625 0.375 5 1 C5.625 3.375 5.625 3.375 6 6 C5.34 6.66 4.68 7.32 4 8 C1.375 7.625 1.375 7.625 -1 7 C-1.625 4.625 -1.625 4.625 -2 2 C-1.34 1.34 -0.68 0.68 0 0 Z " fill="#004BD2" transform="translate(65,4)"/>
</svg>
