<?xml version="1.0" encoding="utf-8"?>
<!-- Generator: Adobe Illustrator 16.0.0, SVG Export Plug-In . SVG Version: 6.00 Build 0)  -->
<!DOCTYPE svg PUBLIC "-//W3C//DTD SVG 1.1//EN" "http://www.w3.org/Graphics/SVG/1.1/DTD/svg11.dtd">
<svg version="1.1" id="Layer_1" xmlns="http://www.w3.org/2000/svg" xmlns:xlink="http://www.w3.org/1999/xlink" x="0px" y="0px"
	 width="132.899px" height="24.546px" viewBox="0 0 132.899 24.546" enable-background="new 0 0 132.899 24.546"
	 xml:space="preserve">
<g>
	<g>
		<path fill="#004CD3" d="M42.774,15.278c0,1.803-0.606,3.247-1.819,4.332c-1.213,1.086-2.753,1.627-4.619,1.627
			c-1.23,0-2.188-0.254-2.873-0.766c-0.687-0.51-1.253-1.021-1.7-1.531h-0.144c-0.224,0.223-0.458,0.538-0.706,0.945
			c-0.247,0.406-0.482,0.802-0.706,1.185H29.92c0.017-0.638,0.027-1.24,0.036-1.808c0.008-0.566,0.02-1.248,0.035-2.047V6.181
			L29.968,5.2c0-0.431-0.068-0.73-0.204-0.897c-0.135-0.168-0.426-0.276-0.873-0.324l-0.909-0.048V3.548h6.631v5.41l-0.049,1.891
			c0.175-0.319,0.456-0.638,0.843-0.958c0.389-0.319,1.121-0.479,2.197-0.479c1.516,0,2.757,0.539,3.723,1.616
			C42.292,12.105,42.774,13.522,42.774,15.278z M37.939,15.302c0-0.224-0.016-0.65-0.048-1.281c-0.032-0.63-0.048-1.017-0.048-1.161
			c0-0.846-0.127-1.528-0.381-2.047c-0.253-0.518-0.665-0.778-1.234-0.778c-0.492,0-0.849,0.14-1.07,0.419
			c-0.223,0.279-0.364,0.598-0.428,0.958c-0.063,0.359-0.104,0.878-0.119,1.556c-0.016,0.678-0.023,1.352-0.023,2.022v1.604
			c0,0.431,0.023,0.878,0.071,1.341c0,0.846,0.131,1.544,0.393,2.095c0.261,0.55,0.661,0.825,1.2,0.825
			c0.522,0,0.919-0.287,1.188-0.861c0.27-0.574,0.404-1.276,0.404-2.106c0-0.319,0.008-0.698,0.024-1.137
			C37.884,16.311,37.907,15.828,37.939,15.302z"/>
		<path fill="#004CD3" d="M50.267,20.999h-7.78v-0.383l0.574-0.024c0.463-0.048,0.743-0.159,0.839-0.335s0.144-0.559,0.144-1.149
			l0.023-1.101v-5.722l-0.023-0.981c-0.031-0.383-0.08-0.67-0.144-0.862s-0.351-0.311-0.862-0.359l-0.646-0.048V9.652h6.296v8.354
			l0.023,1.101c0,0.575,0.048,0.954,0.144,1.138s0.375,0.299,0.838,0.347l0.574,0.024V20.999z M43.995,5.654
			c0-0.622,0.229-1.153,0.687-1.592c0.456-0.439,1.006-0.658,1.647-0.658c0.657,0,1.215,0.211,1.672,0.634
			C48.458,4.462,48.688,5,48.688,5.654c0,0.639-0.229,1.177-0.687,1.616s-1.015,0.658-1.672,0.658c-0.642,0-1.191-0.219-1.647-0.658
			C44.224,6.832,43.995,6.293,43.995,5.654z"/>
		<path fill="#004CD3" d="M51.177,10.562h-1.628V9.916c0.543-0.144,1.109-0.411,1.701-0.802c0.593-0.391,1.157-0.846,1.695-1.365
			c0.537-0.519,0.986-1.025,1.348-1.52c0.36-0.494,0.637-0.941,0.83-1.34h0.674v4.764h3.114l-0.333,0.91h-2.781v6.511l0.047,1.221
			c0,0.687,0.151,1.205,0.452,1.556s0.681,0.526,1.141,0.526c0.618,0,1.069-0.26,1.355-0.777c0.284-0.519,0.428-1.098,0.428-1.736
			h0.334c0,0.895-0.261,1.68-0.784,2.358s-1.65,1.017-3.38,1.017c-1.107,0-2.087-0.287-2.938-0.861s-1.275-1.38-1.275-2.418V10.562z
			"/>
		<path fill="#004CD3" d="M71.433,6.157c0-0.415,0.157-0.79,0.476-1.125c0.318-0.335,0.478-0.583,0.478-0.742
			c0-0.191-0.068-0.335-0.202-0.431c-0.135-0.096-0.336-0.144-0.604-0.144c-0.554,0-0.953,0.323-1.198,0.969
			c-0.244,0.646-0.367,1.464-0.367,2.454l-0.047,2.514h2.705l-0.407,0.91h-2.298v7.445l0.023,1.101c0,0.575,0.047,0.95,0.142,1.126
			c0.095,0.175,0.37,0.295,0.827,0.358l0.852,0.024v0.383h-8.044v-0.383l0.574-0.024c0.463-0.048,0.742-0.159,0.839-0.335
			c0.095-0.176,0.144-0.559,0.144-1.149l0.023-1.101v-7.445h-1.747l0.383-0.91h1.364c0-0.319,0.012-0.658,0.035-1.018
			c0.024-0.359,0.037-0.618,0.037-0.778c0-1.133,0.65-2.174,1.95-3.124c1.301-0.949,2.772-1.424,4.416-1.424
			c1.092,0,2.052,0.228,2.878,0.682c0.826,0.455,1.239,1.129,1.239,2.023c0,0.575-0.236,1.057-0.708,1.448
			c-0.474,0.391-0.998,0.586-1.574,0.586c-0.578,0-1.088-0.171-1.528-0.515C71.652,7.191,71.433,6.732,71.433,6.157z"/>
		<path fill="#004CD3" d="M84.617,15.325c0,1.691-0.643,3.1-1.927,4.225c-1.284,1.126-2.797,1.688-4.536,1.688
			c-1.836,0-3.372-0.562-4.608-1.688c-1.237-1.125-1.854-2.533-1.854-4.225s0.626-3.1,1.879-4.225
			c1.253-1.125,2.781-1.688,4.584-1.688c1.771,0,3.291,0.559,4.561,1.676C83.983,12.206,84.617,13.618,84.617,15.325z
			 M79.854,15.302c0-0.224-0.016-0.67-0.047-1.341c-0.032-0.671-0.049-1.069-0.049-1.197c0-0.862-0.131-1.572-0.395-2.131
			c-0.264-0.559-0.675-0.837-1.232-0.837c-0.512,0-0.902,0.291-1.173,0.874c-0.271,0.583-0.407,1.281-0.407,2.095
			c0,0.303-0.012,0.674-0.036,1.114c-0.024,0.438-0.045,0.912-0.06,1.424c0,0.223,0.015,0.682,0.049,1.376
			c0.03,0.694,0.047,1.098,0.047,1.209c0,0.862,0.131,1.571,0.395,2.13c0.264,0.56,0.666,0.838,1.209,0.838
			c0.526,0,0.926-0.287,1.197-0.861c0.271-0.574,0.406-1.276,0.406-2.106c0-0.319,0.008-0.698,0.023-1.137
			C79.798,16.311,79.822,15.828,79.854,15.302z"/>
		<path fill="#004CD3" d="M84.282,20.999v-0.383l0.646-0.024c0.462-0.048,0.742-0.159,0.838-0.335s0.143-0.559,0.143-1.149
			l0.024-1.101v-5.722l-0.024-0.981c-0.03-0.383-0.079-0.67-0.143-0.862c-0.064-0.191-0.353-0.311-0.862-0.359l-0.622-0.048V9.652
			h6.223v2.01c0.11-0.287,0.346-0.718,0.705-1.292c0.36-0.574,1.194-0.862,2.504-0.862c0.766,0,1.415,0.268,1.951,0.802
			c0.534,0.535,0.802,1.169,0.802,1.903c0,0.734-0.252,1.344-0.754,1.831c-0.503,0.487-1.122,0.73-1.855,0.73
			c-0.607,0-1.13-0.211-1.568-0.635c-0.439-0.422-0.658-0.904-0.658-1.447c0-0.399,0.072-0.766,0.216-1.102
			c0.158-0.303,0.318-0.614,0.479-0.934c-0.081-0.111-0.16-0.167-0.239-0.167c-0.413,0-0.771,0.247-1.076,0.742
			s-0.457,0.958-0.457,1.388v5.529l0.025,1.197c0,0.447,0.054,0.75,0.164,0.91c0.11,0.159,0.387,0.263,0.826,0.311l0.709,0.049
			v0.383H84.282z"/>
		<path fill="#004CD3" d="M111.188,20.999h-6.296v-1.533c-0.368,0.575-0.818,1.015-1.353,1.317
			c-0.535,0.304-1.273,0.454-2.214,0.454c-1.102,0-2.075-0.326-2.922-0.98c-0.861-0.639-1.292-1.523-1.292-2.657v-5.314
			l-0.024-0.981c0-0.431-0.067-0.73-0.203-0.897c-0.135-0.168-0.427-0.275-0.873-0.323l-0.671-0.048V9.652h6.392v7.827l0.024,0.982
			c0,0.654,0.114,1.145,0.344,1.472c0.23,0.327,0.574,0.49,1.034,0.49c0.505,0,0.874-0.144,1.104-0.431
			c0.23-0.287,0.415-0.582,0.558-0.886v-6.463l-0.047-1.101c0-0.527-0.087-0.886-0.261-1.078s-0.521-0.319-1.041-0.383l-0.733-0.048
			V9.652h6.703v8.713l0.023,0.981c0,0.432,0.068,0.73,0.203,0.898c0.136,0.167,0.427,0.274,0.874,0.322l0.671,0.049V20.999z"/>
		<path fill="#004CD3" d="M132.899,20.999h-7.22v-0.383c0.554,0,0.883-0.088,0.985-0.264c0.104-0.176,0.154-0.591,0.154-1.245
			l0.023-1.101v-4.836l-0.023-0.981c0-0.686-0.083-1.181-0.249-1.484c-0.166-0.303-0.463-0.455-0.891-0.455
			c-0.284,0-0.589,0.132-0.914,0.395c-0.323,0.263-0.54,0.778-0.65,1.544v5.817l0.022,1.101c0,0.511,0.027,0.878,0.083,1.102
			c0.055,0.224,0.36,0.358,0.914,0.407v0.383h-6.804v-0.383c0.538,0,0.862-0.088,0.973-0.264s0.167-0.591,0.167-1.245l0.023-1.101
			v-4.836l-0.023-0.981c0-0.686-0.084-1.181-0.25-1.484c-0.166-0.303-0.463-0.455-0.89-0.455c-0.538,0-0.906,0.176-1.103,0.527
			c-0.198,0.351-0.353,0.71-0.464,1.077v6.153l0.023,1.101c0,0.511,0.028,0.878,0.083,1.102c0.056,0.224,0.36,0.358,0.914,0.407
			v0.383h-7.172v-0.383l0.526-0.024c0.463-0.048,0.741-0.159,0.837-0.335s0.144-0.559,0.144-1.149l0.025-1.101v-5.722l-0.025-0.981
			c-0.031-0.383-0.079-0.67-0.144-0.862c-0.063-0.191-0.352-0.311-0.861-0.359l-0.55-0.048V9.652h6.104v1.795
			c0.145-0.447,0.427-0.898,0.85-1.353c0.423-0.455,1.28-0.683,2.574-0.683c0.893,0,1.671,0.188,2.333,0.563
			c0.662,0.375,1.153,0.938,1.473,1.688c0.079-0.287,0.292-0.733,0.635-1.34c0.342-0.606,1.312-0.91,2.907-0.91
			c1.087,0,2.027,0.304,2.825,0.91c0.798,0.607,1.197,1.388,1.197,2.346v5.339l0.023,1.101c0,0.606,0.044,0.989,0.132,1.149
			c0.088,0.159,0.371,0.271,0.851,0.335l0.431,0.024V20.999z"/>
	</g>
</g>
<g>
	<rect fill="#004CD3" width="24.162" height="24.546"/>
	<g>
		<g>
			<path fill="#FFFFFF" d="M18.579,14.818c0,1.575-0.529,2.838-1.589,3.786c-1.061,0.947-2.406,1.422-4.037,1.422
				c-1.074,0-1.911-0.217-2.51-0.662c-0.6-0.447-1.095-0.904-1.485-1.333H8.833c-0.196,0.177-0.401,0.462-0.618,0.817
				c-0.216,0.355-0.421,0.698-0.616,1.026H7.348c0.014-0.556,0.027-1.081,0.034-1.577c0.007-0.494,0.009-1.088,0.033-1.785V6.87
				L7.393,6.013c0-0.377-0.061-0.638-0.18-0.784C7.094,5.082,6.836,4.987,6.446,4.946L5.647,4.904V4.565h5.812v4.731l-0.048,1.653
				c0.152-0.279,0.395-0.558,0.732-0.837c0.341-0.279,0.979-0.418,1.92-0.418c1.324,0,2.407,0.471,3.251,1.412
				S18.579,13.285,18.579,14.818z M14.354,14.839c0-0.195-0.015-0.567-0.042-1.119c-0.027-0.55-0.041-0.889-0.041-1.014
				c0-0.739-0.11-1.335-0.332-1.788c-0.222-0.454-0.582-0.681-1.08-0.681c-0.431,0-0.741,0.122-0.936,0.366
				c-0.193,0.244-0.318,0.523-0.373,0.837c-0.055,0.313-0.087,0.767-0.101,1.359c-0.015,0.593-0.017,1.183-0.017,1.768v1.401
				c0,0.376,0.017,0.767,0.059,1.171c0,0.739,0.112,1.35,0.341,1.83c0.229,0.481,0.576,0.722,1.047,0.722
				c0.458,0,0.803-0.251,1.039-0.753c0.234-0.502,0.353-1.115,0.353-1.84c0-0.279,0.008-0.61,0.021-0.994
				C14.305,15.722,14.327,15.3,14.354,14.839z"/>
		</g>
	</g>
</g>
</svg>
