<?xml version="1.0" encoding="UTF-8"?>
<svg version="1.1" xmlns="http://www.w3.org/2000/svg" width="32" height="32">
<path d="M0 0 C10.56 0 21.12 0 32 0 C32 10.56 32 21.12 32 32 C21.44 32 10.88 32 0 32 C0 21.44 0 10.88 0 0 Z " fill="#004BD2" transform="translate(0,0)"/>
<path d="M0 0 C1.65 0 3.3 0 5 0 C5.33 5.94 5.66 11.88 6 18 C6.66 18 7.32 18 8 18 C8.05395478 16.37536158 8.09277195 14.75021459 8.125 13.125 C8.15980469 11.76761719 8.15980469 11.76761719 8.1953125 10.3828125 C8.24324836 7.81193006 8.24324836 7.81193006 6 6 C9.375 6.3125 9.375 6.3125 13 7 C15 10 15 10 14.875 13.5 C14 17 14 17 12.375 19 C8.13410052 20.78564188 4.21237508 19.40412503 0 18 C0 12.06 0 6.12 0 0 Z " fill="#FCFDFE" transform="translate(10,6)"/>
<path d="M0 0 C2.97 0 5.94 0 9 0 C9 2.64 9 5.28 9 8 C9.99 8.33 10.98 8.66 12 9 C12 12.3 12 15.6 12 19 C10.68 19 9.36 19 8 19 C8 13.06 8 7.12 8 1 C6.35 1 4.7 1 3 1 C3.33 7.27 3.66 13.54 4 20 C3.34 20 2.68 20 2 20 C2 13.73 2 7.46 2 1 C1.34 0.67 0.68 0.34 0 0 Z " fill="#3C75DC" transform="translate(7,5)"/>
<path d="M0 0 C3.375 0.3125 3.375 0.3125 7 1 C9 4 9 4 8.875 7.5 C8 11 8 11 6.25 12.9375 C3.64597372 14.16717908 1.84687774 14.23723981 -1 14 C-0.01 13.34 0.98 12.68 2 12 C2.44017701 9.63500496 2.44017701 9.63500496 2.3125 7 C2.30863281 6.113125 2.30476563 5.22625 2.30078125 4.3125 C2.21402407 1.80735945 2.21402407 1.80735945 0 0 Z " fill="#E5EDFA" transform="translate(16,12)"/>
</svg>
